<?xml version="1.0" encoding="UTF-8"?>
<svg xmlns="http://www.w3.org/2000/svg" width="100" height="25" viewBox="0 0 100 25" fill="none">
  <path d="M7.45455 0.727272L11.7045 8.07955H11.8864L16.1818 0.727272H22.4773L15.4545 12.3636L22.7045 24H16.25L11.8864 16.5682H11.7045L7.34091 24H0.931818L8.14773 12.3636L1.11364 0.727272H7.45455Z" fill="#E34449"></path>
  <path d="M25.3864 24V0.727272H31.0114V10.5682H31.3182L39.0114 0.727272H45.6364L37.3864 11.1136L45.7841 24H39.0568L33.2614 14.8523L31.0114 17.6932V24H25.3864Z" fill="white"></path>
  <path d="M54.733 24.3295C52.9072 24.3295 51.3314 23.9697 50.0057 23.25C48.6875 22.5227 47.6723 21.4886 46.9602 20.1477C46.2557 18.7992 45.9034 17.197 45.9034 15.3409C45.9034 13.5379 46.2595 11.9621 46.9716 10.6136C47.6837 9.25758 48.6875 8.20454 49.983 7.45454C51.2784 6.69697 52.8049 6.31818 54.5625 6.31818C55.8049 6.31818 56.9413 6.51136 57.9716 6.89773C59.0019 7.28409 59.892 7.85606 60.642 8.61364C61.392 9.37121 61.9754 10.3068 62.392 11.4205C62.8087 12.5265 63.017 13.7955 63.017 15.2273V16.6136H47.8466V13.3864H57.8466C57.839 12.7955 57.6989 12.2689 57.4261 11.8068C57.1534 11.3447 56.7784 10.9848 56.3011 10.7273C55.8314 10.4621 55.2898 10.3295 54.6761 10.3295C54.0549 10.3295 53.4981 10.4697 53.0057 10.75C52.5133 11.0227 52.1231 11.3977 51.8352 11.875C51.5473 12.3447 51.3958 12.8788 51.3807 13.4773V16.7614C51.3807 17.4735 51.5208 18.0985 51.8011 18.6364C52.0814 19.1667 52.4792 19.5795 52.9943 19.875C53.5095 20.1705 54.1231 20.3182 54.8352 20.3182C55.3277 20.3182 55.7746 20.25 56.1761 20.1136C56.5777 19.9773 56.9223 19.7765 57.2102 19.5114C57.4981 19.2462 57.714 18.9205 57.858 18.5341L62.9602 18.6818C62.7481 19.8258 62.2822 20.822 61.5625 21.6705C60.8504 22.5114 59.9148 23.1667 58.7557 23.6364C57.5966 24.0985 56.2557 24.3295 54.733 24.3295ZM71.4119 0.727272V24H65.8551V0.727272H71.4119ZM80.5057 0.727272V24H74.9489V0.727272H80.5057ZM88.9631 24.2955C87.8494 24.2955 86.8608 24.1098 85.9972 23.7386C85.1411 23.3598 84.4631 22.7917 83.9631 22.0341C83.4706 21.2689 83.2244 20.3106 83.2244 19.1591C83.2244 18.1894 83.3949 17.3712 83.7358 16.7045C84.0767 16.0379 84.5464 15.4962 85.1449 15.0795C85.7434 14.6629 86.4328 14.3485 87.2131 14.1364C87.9934 13.9167 88.8267 13.7689 89.7131 13.6932C90.7055 13.6023 91.5047 13.5076 92.1108 13.4091C92.7169 13.303 93.1563 13.1553 93.429 12.9659C93.7093 12.7689 93.8494 12.4924 93.8494 12.1364V12.0795C93.8494 11.4962 93.6487 11.0455 93.2472 10.7273C92.8456 10.4091 92.304 10.25 91.6222 10.25C90.8873 10.25 90.2964 10.4091 89.8494 10.7273C89.4025 11.0455 89.1184 11.4848 88.9972 12.0455L83.8722 11.8636C84.0237 10.803 84.4138 9.85606 85.0426 9.02273C85.679 8.18182 86.5502 7.52273 87.6562 7.04545C88.7699 6.56061 90.107 6.31818 91.6676 6.31818C92.7813 6.31818 93.8078 6.45076 94.7472 6.71591C95.6866 6.97348 96.5047 7.35227 97.2017 7.85227C97.8987 8.3447 98.4366 8.95076 98.8153 9.67045C99.2017 10.3902 99.3949 11.2121 99.3949 12.1364V24H94.1676V21.5682H94.0312C93.7206 22.1591 93.3229 22.6591 92.8381 23.0682C92.3608 23.4773 91.7964 23.7841 91.1449 23.9886C90.5009 24.1932 89.7737 24.2955 88.9631 24.2955ZM90.679 20.6591C91.2775 20.6591 91.8153 20.5379 92.2926 20.2955C92.7775 20.053 93.1638 19.7197 93.4517 19.2955C93.7396 18.8636 93.8835 18.3636 93.8835 17.7955V16.1364C93.7244 16.2197 93.5313 16.2955 93.304 16.3636C93.0843 16.4318 92.8419 16.4962 92.5767 16.5568C92.3116 16.6174 92.0388 16.6705 91.7585 16.7159C91.4782 16.7614 91.2093 16.803 90.9517 16.8409C90.429 16.9242 89.982 17.053 89.6108 17.2273C89.2472 17.4015 88.9669 17.6288 88.7699 17.9091C88.5805 18.1818 88.4858 18.5076 88.4858 18.8864C88.4858 19.4621 88.6903 19.9015 89.0994 20.2045C89.5161 20.5076 90.0426 20.6591 90.679 20.6591Z" fill="#EFEFEF"></path>
</svg>
